<mxfile host="app.diagrams.net" modified="2023-10-11T09:13:58.526Z" agent="Mozilla/5.0 (Windows NT 10.0; Win64; x64) AppleWebKit/537.36 (KHTML, like Gecko) Chrome/117.0.0.0 Safari/537.36 Edg/117.0.2045.60" version="22.0.4" etag="tIt3Hdvc8Hyux-3sTrxa" type="github">
  <diagram name="第 1 页" id="AE5ZJ5pgHTynJEVzSP3D">
    <mxGraphModel>
      <root>
        <mxCell id="0" />
        <mxCell id="1" parent="0" />
      </root>
    </mxGraphModel>
  </diagram>
</mxfile>
